<mxfile host="app.diagrams.net" modified="2024-02-08T22:52:50.600Z" agent="Mozilla/5.0 (Windows NT 10.0; Win64; x64) AppleWebKit/537.36 (KHTML, like Gecko) Chrome/120.0.0.0 YaBrowser/24.1.0.0 Safari/537.36" etag="Hcv4G2Z0e6F5vJhKumDM" version="23.1.2" type="device">
  <diagram id="onA2VM0ke9PM5qHIyAdz" name="Страница — 1">
    <mxGraphModel dx="3447" dy="1020" grid="1" gridSize="10" guides="1" tooltips="1" connect="1" arrows="1" fold="1" page="1" pageScale="1" pageWidth="827" pageHeight="1169" math="0" shadow="0">
      <root>
        <mxCell id="0" />
        <mxCell id="1" parent="0" />
        <mxCell id="1lmrmKGu_N5sYzmFphA3-1" value="" style="rounded=0;whiteSpace=wrap;html=1;" parent="1" vertex="1">
          <mxGeometry x="-1170" y="1095.5" width="463.48" height="260" as="geometry" />
        </mxCell>
        <mxCell id="1lmrmKGu_N5sYzmFphA3-2" value="Стартотвая страница" style="text;html=1;strokeColor=none;fillColor=none;align=center;verticalAlign=middle;whiteSpace=wrap;rounded=0;" parent="1" vertex="1">
          <mxGeometry x="-1028.2600000000002" y="1380" width="180" height="30" as="geometry" />
        </mxCell>
        <mxCell id="1lmrmKGu_N5sYzmFphA3-4" value="Вход в систему" style="rounded=1;whiteSpace=wrap;html=1;perimeterSpacing=0;" parent="1" vertex="1">
          <mxGeometry x="-923.26" y="1225" width="151" height="50" as="geometry" />
        </mxCell>
        <mxCell id="1lmrmKGu_N5sYzmFphA3-139" value="v" style="rounded=0;whiteSpace=wrap;html=1;" parent="1" vertex="1">
          <mxGeometry x="-400" y="1095.5" width="465" height="260" as="geometry" />
        </mxCell>
        <mxCell id="1lmrmKGu_N5sYzmFphA3-140" value="Вход в систему" style="text;html=1;strokeColor=none;fillColor=none;align=center;verticalAlign=middle;whiteSpace=wrap;rounded=0;" parent="1" vertex="1">
          <mxGeometry x="-218.75" y="1365.5" width="92.5" height="30" as="geometry" />
        </mxCell>
        <mxCell id="1lmrmKGu_N5sYzmFphA3-142" value="Данные для входа" style="rounded=0;whiteSpace=wrap;html=1;" parent="1" vertex="1">
          <mxGeometry x="-282.5" y="1165.5" width="220" height="130" as="geometry" />
        </mxCell>
        <mxCell id="1lmrmKGu_N5sYzmFphA3-144" value="&lt;font style=&quot;font-size: 10px;&quot;&gt;Вход&lt;/font&gt;" style="rounded=1;whiteSpace=wrap;html=1;" parent="1" vertex="1">
          <mxGeometry x="-250" y="1255.5" width="52.5" height="30" as="geometry" />
        </mxCell>
        <mxCell id="1lmrmKGu_N5sYzmFphA3-149" value="&lt;font style=&quot;font-size: 10px;&quot;&gt;Восстановление пароля&lt;/font&gt;" style="rounded=1;whiteSpace=wrap;html=1;" parent="1" vertex="1">
          <mxGeometry x="-157.5" y="1255.5" width="80" height="30" as="geometry" />
        </mxCell>
        <mxCell id="1lmrmKGu_N5sYzmFphA3-150" value="v" style="rounded=0;whiteSpace=wrap;html=1;" parent="1" vertex="1">
          <mxGeometry x="-400" y="675.5" width="465" height="260" as="geometry" />
        </mxCell>
        <mxCell id="1lmrmKGu_N5sYzmFphA3-151" value="Восстановление пароля" style="text;html=1;strokeColor=none;fillColor=none;align=center;verticalAlign=middle;whiteSpace=wrap;rounded=0;" parent="1" vertex="1">
          <mxGeometry x="-266.5" y="935.5" width="180" height="30" as="geometry" />
        </mxCell>
        <mxCell id="1lmrmKGu_N5sYzmFphA3-152" value="Логин для сброса пароля" style="rounded=0;whiteSpace=wrap;html=1;" parent="1" vertex="1">
          <mxGeometry x="-282.5" y="745.5" width="220" height="130" as="geometry" />
        </mxCell>
        <mxCell id="1lmrmKGu_N5sYzmFphA3-154" value="&lt;font style=&quot;font-size: 10px;&quot;&gt;Вход в систему&lt;/font&gt;" style="rounded=1;whiteSpace=wrap;html=1;" parent="1" vertex="1">
          <mxGeometry x="-20" y="683.5" width="78" height="21" as="geometry" />
        </mxCell>
        <mxCell id="1lmrmKGu_N5sYzmFphA3-157" value="&lt;font style=&quot;font-size: 10px;&quot;&gt;Сбросить пароль&lt;/font&gt;" style="rounded=1;whiteSpace=wrap;html=1;" parent="1" vertex="1">
          <mxGeometry x="-212.5" y="835.5" width="80" height="30" as="geometry" />
        </mxCell>
        <mxCell id="1lmrmKGu_N5sYzmFphA3-158" value="Регистрация" style="text;html=1;strokeColor=none;fillColor=none;align=center;verticalAlign=middle;whiteSpace=wrap;rounded=0;" parent="1" vertex="1">
          <mxGeometry x="-271" y="1775.5" width="180" height="30" as="geometry" />
        </mxCell>
        <mxCell id="1lmrmKGu_N5sYzmFphA3-159" value="" style="rounded=0;whiteSpace=wrap;html=1;" parent="1" vertex="1">
          <mxGeometry x="-400" y="1505.5" width="465" height="260" as="geometry" />
        </mxCell>
        <mxCell id="1lmrmKGu_N5sYzmFphA3-160" value="&lt;font style=&quot;font-size: 10px;&quot;&gt;Вход в систему&lt;/font&gt;" style="rounded=1;whiteSpace=wrap;html=1;" parent="1" vertex="1">
          <mxGeometry x="-39" y="1513.5" width="78" height="22" as="geometry" />
        </mxCell>
        <mxCell id="1lmrmKGu_N5sYzmFphA3-161" style="edgeStyle=orthogonalEdgeStyle;rounded=0;orthogonalLoop=1;jettySize=auto;html=1;exitX=0.5;exitY=1;exitDx=0;exitDy=0;" parent="1" edge="1">
          <mxGeometry relative="1" as="geometry">
            <mxPoint x="-186.5" y="1645.5" as="sourcePoint" />
            <mxPoint x="-186.5" y="1645.5" as="targetPoint" />
          </mxGeometry>
        </mxCell>
        <mxCell id="1lmrmKGu_N5sYzmFphA3-165" value="" style="rounded=0;whiteSpace=wrap;html=1;" parent="1" vertex="1">
          <mxGeometry x="-346" y="1555.5" width="309" height="200" as="geometry" />
        </mxCell>
        <mxCell id="1lmrmKGu_N5sYzmFphA3-166" value="Поля для информации: имя, почта, пароль" style="rounded=0;whiteSpace=wrap;html=1;" parent="1" vertex="1">
          <mxGeometry x="-310" y="1605.5" width="230" height="60" as="geometry" />
        </mxCell>
        <mxCell id="1lmrmKGu_N5sYzmFphA3-168" value="&lt;font style=&quot;font-size: 10px;&quot;&gt;Завершить регистрацию&lt;/font&gt;" style="rounded=1;whiteSpace=wrap;html=1;" parent="1" vertex="1">
          <mxGeometry x="-334.5" y="1715.5" width="90.5" height="32" as="geometry" />
        </mxCell>
        <mxCell id="1lmrmKGu_N5sYzmFphA3-169" value="" style="ellipse;fillColor=strokeColor;html=1;" parent="1" vertex="1">
          <mxGeometry x="-953.2600000000002" y="1010" width="30" height="30" as="geometry" />
        </mxCell>
        <mxCell id="1lmrmKGu_N5sYzmFphA3-170" value="" style="endArrow=classic;html=1;rounded=0;exitX=0.5;exitY=1;exitDx=0;exitDy=0;entryX=0.5;entryY=0;entryDx=0;entryDy=0;" parent="1" source="1lmrmKGu_N5sYzmFphA3-169" target="1lmrmKGu_N5sYzmFphA3-1" edge="1">
          <mxGeometry width="50" height="50" relative="1" as="geometry">
            <mxPoint x="-1520" y="1570" as="sourcePoint" />
            <mxPoint x="-1470" y="1520" as="targetPoint" />
          </mxGeometry>
        </mxCell>
        <mxCell id="1lmrmKGu_N5sYzmFphA3-175" value="" style="endArrow=classic;html=1;rounded=0;exitX=1;exitY=0.5;exitDx=0;exitDy=0;" parent="1" source="1lmrmKGu_N5sYzmFphA3-1" target="1lmrmKGu_N5sYzmFphA3-139" edge="1">
          <mxGeometry width="50" height="50" relative="1" as="geometry">
            <mxPoint x="-488.0000000000001" y="1622" as="sourcePoint" />
            <mxPoint x="-588" y="1240" as="targetPoint" />
          </mxGeometry>
        </mxCell>
        <mxCell id="1lmrmKGu_N5sYzmFphA3-179" value="" style="endArrow=classic;html=1;rounded=0;exitX=0.25;exitY=0;exitDx=0;exitDy=0;entryX=0.25;entryY=1;entryDx=0;entryDy=0;" parent="1" source="1lmrmKGu_N5sYzmFphA3-139" target="1lmrmKGu_N5sYzmFphA3-150" edge="1">
          <mxGeometry width="50" height="50" relative="1" as="geometry">
            <mxPoint x="-626" y="825.5" as="sourcePoint" />
            <mxPoint x="-459" y="825.5" as="targetPoint" />
          </mxGeometry>
        </mxCell>
        <mxCell id="1lmrmKGu_N5sYzmFphA3-180" value="Нажата кнопка &quot;Восстановление пароля&quot;" style="text;html=1;strokeColor=none;fillColor=none;align=center;verticalAlign=middle;whiteSpace=wrap;rounded=0;" parent="1" vertex="1">
          <mxGeometry x="-400" y="1010" width="112" height="30" as="geometry" />
        </mxCell>
        <mxCell id="1lmrmKGu_N5sYzmFphA3-181" value="" style="endArrow=classic;html=1;rounded=0;exitX=1;exitY=0.25;exitDx=0;exitDy=0;entryX=0;entryY=0.25;entryDx=0;entryDy=0;edgeStyle=orthogonalEdgeStyle;" parent="1" source="1lmrmKGu_N5sYzmFphA3-150" target="1lmrmKGu_N5sYzmFphA3-182" edge="1">
          <mxGeometry width="50" height="50" relative="1" as="geometry">
            <mxPoint x="110" y="1152.5" as="sourcePoint" />
            <mxPoint x="110" y="1016.5" as="targetPoint" />
          </mxGeometry>
        </mxCell>
        <mxCell id="1lmrmKGu_N5sYzmFphA3-182" value="v" style="rounded=0;whiteSpace=wrap;html=1;" parent="1" vertex="1">
          <mxGeometry x="410" y="675.5" width="465" height="260" as="geometry" />
        </mxCell>
        <mxCell id="1lmrmKGu_N5sYzmFphA3-183" value="Ввод нового пароля" style="text;html=1;strokeColor=none;fillColor=none;align=center;verticalAlign=middle;whiteSpace=wrap;rounded=0;" parent="1" vertex="1">
          <mxGeometry x="552.5" y="945.5" width="180" height="30" as="geometry" />
        </mxCell>
        <mxCell id="1lmrmKGu_N5sYzmFphA3-184" value="Ввод кода из сообщения на почту, нового пароля и его повторение" style="rounded=0;whiteSpace=wrap;html=1;" parent="1" vertex="1">
          <mxGeometry x="527.5" y="745.5" width="220" height="130" as="geometry" />
        </mxCell>
        <mxCell id="1lmrmKGu_N5sYzmFphA3-185" value="&lt;font style=&quot;font-size: 10px;&quot;&gt;Вход в систему&lt;/font&gt;" style="rounded=1;whiteSpace=wrap;html=1;" parent="1" vertex="1">
          <mxGeometry x="790" y="683.5" width="78" height="21" as="geometry" />
        </mxCell>
        <mxCell id="1lmrmKGu_N5sYzmFphA3-187" value="&lt;span style=&quot;font-size: 10px;&quot;&gt;Смена пароля&lt;/span&gt;" style="rounded=1;whiteSpace=wrap;html=1;" parent="1" vertex="1">
          <mxGeometry x="593.5" y="835.5" width="80" height="30" as="geometry" />
        </mxCell>
        <mxCell id="1lmrmKGu_N5sYzmFphA3-188" value="Нажата кнопка &quot;Сбросить пароль&quot;" style="text;html=1;strokeColor=none;fillColor=none;align=center;verticalAlign=middle;whiteSpace=wrap;rounded=0;" parent="1" vertex="1">
          <mxGeometry x="180" y="704.5" width="112" height="30" as="geometry" />
        </mxCell>
        <mxCell id="1lmrmKGu_N5sYzmFphA3-189" value="" style="endArrow=classic;html=1;rounded=0;exitX=0.25;exitY=1;exitDx=0;exitDy=0;entryX=1;entryY=0.25;entryDx=0;entryDy=0;edgeStyle=orthogonalEdgeStyle;" parent="1" source="1lmrmKGu_N5sYzmFphA3-182" target="1lmrmKGu_N5sYzmFphA3-139" edge="1">
          <mxGeometry width="50" height="50" relative="1" as="geometry">
            <mxPoint x="-53.5" y="904.63" as="sourcePoint" />
            <mxPoint x="101.5" y="904.63" as="targetPoint" />
          </mxGeometry>
        </mxCell>
        <mxCell id="1lmrmKGu_N5sYzmFphA3-191" value="Нажата кнопка &quot;Смена пароля&quot;&lt;br&gt;(при условии совпадении паролей и кодов) / Нажата кнопка &quot;Вход в систему&quot;" style="text;html=1;strokeColor=none;fillColor=none;align=center;verticalAlign=middle;whiteSpace=wrap;rounded=0;" parent="1" vertex="1">
          <mxGeometry x="327" y="1010" width="192" height="30" as="geometry" />
        </mxCell>
        <mxCell id="1lmrmKGu_N5sYzmFphA3-192" value="" style="endArrow=classic;html=1;rounded=0;exitX=0.75;exitY=1;exitDx=0;exitDy=0;entryX=0;entryY=0.25;entryDx=0;entryDy=0;" parent="1" source="1lmrmKGu_N5sYzmFphA3-1" target="1lmrmKGu_N5sYzmFphA3-159" edge="1">
          <mxGeometry width="50" height="50" relative="1" as="geometry">
            <mxPoint x="-27" y="1678.5" as="sourcePoint" />
            <mxPoint x="-27" y="1542.5" as="targetPoint" />
            <Array as="points">
              <mxPoint x="-822" y="1570" />
            </Array>
          </mxGeometry>
        </mxCell>
        <mxCell id="1lmrmKGu_N5sYzmFphA3-193" value="Нажата кнопка &quot;Регистрация&quot;" style="text;html=1;strokeColor=none;fillColor=none;align=center;verticalAlign=middle;whiteSpace=wrap;rounded=0;" parent="1" vertex="1">
          <mxGeometry x="-670" y="1580.5" width="112" height="30" as="geometry" />
        </mxCell>
        <mxCell id="1lmrmKGu_N5sYzmFphA3-195" value="Нажата &quot;Завершить регистрацию&quot;" style="text;html=1;strokeColor=none;fillColor=none;align=center;verticalAlign=middle;whiteSpace=wrap;rounded=0;" parent="1" vertex="1">
          <mxGeometry x="155" y="1535.5" width="112" height="30" as="geometry" />
        </mxCell>
        <mxCell id="1lmrmKGu_N5sYzmFphA3-202" value="" style="endArrow=classic;html=1;rounded=0;exitX=1;exitY=0.25;exitDx=0;exitDy=0;entryX=0;entryY=0.25;entryDx=0;entryDy=0;" parent="1" source="1lmrmKGu_N5sYzmFphA3-159" target="Fpg0scVaTkVkrr4jqa7s-8" edge="1">
          <mxGeometry width="50" height="50" relative="1" as="geometry">
            <mxPoint x="130" y="1605.5" as="sourcePoint" />
            <mxPoint x="155.00000000010823" y="1570.5" as="targetPoint" />
          </mxGeometry>
        </mxCell>
        <mxCell id="1lmrmKGu_N5sYzmFphA3-204" value="Нажата кнопка &quot;Вход в систему&quot;" style="text;html=1;strokeColor=none;fillColor=none;align=center;verticalAlign=middle;whiteSpace=wrap;rounded=0;" parent="1" vertex="1">
          <mxGeometry x="-39" y="1420" width="112" height="30" as="geometry" />
        </mxCell>
        <mxCell id="1lmrmKGu_N5sYzmFphA3-205" value="" style="endArrow=classic;html=1;rounded=0;exitX=0.75;exitY=0;exitDx=0;exitDy=0;entryX=0.75;entryY=1;entryDx=0;entryDy=0;" parent="1" source="1lmrmKGu_N5sYzmFphA3-159" target="1lmrmKGu_N5sYzmFphA3-139" edge="1">
          <mxGeometry width="50" height="50" relative="1" as="geometry">
            <mxPoint x="60" y="1430" as="sourcePoint" />
            <mxPoint x="150.00000000010823" y="1430" as="targetPoint" />
          </mxGeometry>
        </mxCell>
        <mxCell id="1lmrmKGu_N5sYzmFphA3-210" value="" style="endArrow=classic;html=1;rounded=0;exitX=1;exitY=0.25;exitDx=0;exitDy=0;entryX=0.25;entryY=0;entryDx=0;entryDy=0;" parent="1" target="Fpg0scVaTkVkrr4jqa7s-8" edge="1">
          <mxGeometry width="50" height="50" relative="1" as="geometry">
            <mxPoint x="65" y="1304" as="sourcePoint" />
            <mxPoint x="155.00000000010823" y="1304" as="targetPoint" />
            <Array as="points">
              <mxPoint x="506" y="1304" />
            </Array>
          </mxGeometry>
        </mxCell>
        <mxCell id="1lmrmKGu_N5sYzmFphA3-577" value="Нажата кнопка &quot;Вход в систему&quot;" style="text;html=1;strokeColor=none;fillColor=none;align=center;verticalAlign=middle;whiteSpace=wrap;rounded=0;" parent="1" vertex="1">
          <mxGeometry x="-600" y="1225.5" width="112" height="30" as="geometry" />
        </mxCell>
        <mxCell id="Fpg0scVaTkVkrr4jqa7s-3" value="Регистрация" style="rounded=1;whiteSpace=wrap;html=1;perimeterSpacing=0;" parent="1" vertex="1">
          <mxGeometry x="-1110" y="1225" width="151" height="50" as="geometry" />
        </mxCell>
        <mxCell id="Fpg0scVaTkVkrr4jqa7s-5" value="" style="endArrow=classic;html=1;rounded=0;exitX=0.25;exitY=1;exitDx=0;exitDy=0;entryX=0.25;entryY=0;entryDx=0;entryDy=0;" parent="1" source="1lmrmKGu_N5sYzmFphA3-139" target="1lmrmKGu_N5sYzmFphA3-159" edge="1">
          <mxGeometry width="50" height="50" relative="1" as="geometry">
            <mxPoint x="-41" y="1516" as="sourcePoint" />
            <mxPoint x="-41" y="1366" as="targetPoint" />
          </mxGeometry>
        </mxCell>
        <mxCell id="Fpg0scVaTkVkrr4jqa7s-6" value="Нажата кнопка &quot;Регистрация&quot;" style="text;html=1;strokeColor=none;fillColor=none;align=center;verticalAlign=middle;whiteSpace=wrap;rounded=0;" parent="1" vertex="1">
          <mxGeometry x="-410" y="1410" width="112" height="30" as="geometry" />
        </mxCell>
        <mxCell id="Fpg0scVaTkVkrr4jqa7s-7" value="Просмотр своего аккаунта" style="text;html=1;strokeColor=none;fillColor=none;align=center;verticalAlign=middle;whiteSpace=wrap;rounded=0;" parent="1" vertex="1">
          <mxGeometry x="519" y="1775.5" width="180" height="30" as="geometry" />
        </mxCell>
        <mxCell id="Fpg0scVaTkVkrr4jqa7s-8" value="" style="rounded=0;whiteSpace=wrap;html=1;" parent="1" vertex="1">
          <mxGeometry x="390" y="1505.5" width="465" height="260" as="geometry" />
        </mxCell>
        <mxCell id="Fpg0scVaTkVkrr4jqa7s-9" value="&lt;font style=&quot;font-size: 10px;&quot;&gt;Выход из системы&lt;/font&gt;" style="rounded=1;whiteSpace=wrap;html=1;" parent="1" vertex="1">
          <mxGeometry x="770" y="1513.5" width="78" height="26.5" as="geometry" />
        </mxCell>
        <mxCell id="Fpg0scVaTkVkrr4jqa7s-10" style="edgeStyle=orthogonalEdgeStyle;rounded=0;orthogonalLoop=1;jettySize=auto;html=1;exitX=0.5;exitY=1;exitDx=0;exitDy=0;" parent="1" edge="1">
          <mxGeometry relative="1" as="geometry">
            <mxPoint x="603.5" y="1645.5" as="sourcePoint" />
            <mxPoint x="603.5" y="1645.5" as="targetPoint" />
          </mxGeometry>
        </mxCell>
        <mxCell id="Fpg0scVaTkVkrr4jqa7s-11" value="" style="rounded=0;whiteSpace=wrap;html=1;" parent="1" vertex="1">
          <mxGeometry x="444" y="1555.5" width="309" height="200" as="geometry" />
        </mxCell>
        <mxCell id="Fpg0scVaTkVkrr4jqa7s-12" value="Основная информация" style="rounded=0;whiteSpace=wrap;html=1;" parent="1" vertex="1">
          <mxGeometry x="480" y="1605.5" width="230" height="60" as="geometry" />
        </mxCell>
        <mxCell id="Fpg0scVaTkVkrr4jqa7s-14" value="" style="endArrow=classic;html=1;rounded=0;exitX=0.25;exitY=1;exitDx=0;exitDy=0;edgeStyle=orthogonalEdgeStyle;entryX=0.25;entryY=1;entryDx=0;entryDy=0;" parent="1" source="Fpg0scVaTkVkrr4jqa7s-8" target="1lmrmKGu_N5sYzmFphA3-1" edge="1">
          <mxGeometry width="50" height="50" relative="1" as="geometry">
            <mxPoint x="480" y="1788.5" as="sourcePoint" />
            <mxPoint x="506" y="1845.5" as="targetPoint" />
            <Array as="points">
              <mxPoint x="506" y="1890" />
              <mxPoint x="-1054" y="1890" />
            </Array>
          </mxGeometry>
        </mxCell>
        <mxCell id="Fpg0scVaTkVkrr4jqa7s-15" value="Нажата &quot;Выход из системы&quot;" style="text;html=1;strokeColor=none;fillColor=none;align=center;verticalAlign=middle;whiteSpace=wrap;rounded=0;" parent="1" vertex="1">
          <mxGeometry x="390" y="1785.5" width="112" height="30" as="geometry" />
        </mxCell>
        <mxCell id="Fpg0scVaTkVkrr4jqa7s-22" value="&lt;font style=&quot;font-size: 10px;&quot;&gt;Регистрация&lt;/font&gt;" style="rounded=1;whiteSpace=wrap;html=1;" parent="1" vertex="1">
          <mxGeometry x="-37" y="1103.5" width="78" height="22" as="geometry" />
        </mxCell>
        <mxCell id="Fpg0scVaTkVkrr4jqa7s-23" value="Нажата кнопка &quot;Вход&quot; (с учетом корректности данных входа)" style="text;html=1;strokeColor=none;fillColor=none;align=center;verticalAlign=middle;whiteSpace=wrap;rounded=0;" parent="1" vertex="1">
          <mxGeometry x="210" y="1265.5" width="210" height="30" as="geometry" />
        </mxCell>
        <mxCell id="Fpg0scVaTkVkrr4jqa7s-24" value="" style="endArrow=classic;html=1;rounded=0;exitX=0.75;exitY=1;exitDx=0;exitDy=0;entryX=0.75;entryY=0;entryDx=0;entryDy=0;edgeStyle=orthogonalEdgeStyle;" parent="1" source="1lmrmKGu_N5sYzmFphA3-150" target="1lmrmKGu_N5sYzmFphA3-139" edge="1">
          <mxGeometry width="50" height="50" relative="1" as="geometry">
            <mxPoint x="58" y="1038.33" as="sourcePoint" />
            <mxPoint x="403" y="1038.33" as="targetPoint" />
          </mxGeometry>
        </mxCell>
        <mxCell id="Fpg0scVaTkVkrr4jqa7s-26" value="Нажата кнопка &quot;Вход в систему&quot;" style="text;html=1;strokeColor=none;fillColor=none;align=center;verticalAlign=middle;whiteSpace=wrap;rounded=0;" parent="1" vertex="1">
          <mxGeometry x="-47" y="990" width="112" height="30" as="geometry" />
        </mxCell>
      </root>
    </mxGraphModel>
  </diagram>
</mxfile>
